<?xml version="1.0" encoding="UTF-8" standalone="no"?>
<svg
   width="16"
   height="16"
   fill="currentColor"
   class="bi bi-instagram"
   viewBox="0 0 16 16"
   version="1.1"
   id="svg3880"
   sodipodi:docname="instagram.svg"
   inkscape:version="1.2.1 (9c6d41e410, 2022-07-14)"
   xmlns:inkscape="http://www.inkscape.org/namespaces/inkscape"
   xmlns:sodipodi="http://sodipodi.sourceforge.net/DTD/sodipodi-0.dtd"
   xmlns="http://www.w3.org/2000/svg"
   xmlns:svg="http://www.w3.org/2000/svg">
  <defs
     id="defs3884" />
  <sodipodi:namedview
     id="namedview3882"
     pagecolor="#ffffff"
     bordercolor="#000000"
     borderopacity="0.25"
     inkscape:showpageshadow="2"
     inkscape:pageopacity="0.0"
     inkscape:pagecheckerboard="0"
     inkscape:deskcolor="#d1d1d1"
     showgrid="false"
     inkscape:zoom="51.8125"
     inkscape:cx="7.8841978"
     inkscape:cy="8.0096502"
     inkscape:window-width="1920"
     inkscape:window-height="1009"
     inkscape:window-x="-8"
     inkscape:window-y="-8"
     inkscape:window-maximized="1"
     inkscape:current-layer="svg3880" />
  <path
     d="M8 0C5.829 0 5.556.01 4.703.048 3.85.088 3.269.222 2.76.42a3.917 3.917 0 0 0-1.417.923A3.927 3.927 0 0 0 .42 2.76C.222 3.268.087 3.85.048 4.7.01 5.555 0 5.827 0 8.001c0 2.172.01 2.444.048 3.297.04.852.174 1.433.372 1.942.205.526.478.972.923 1.417.444.445.89.719 1.416.923.51.198 1.09.333 1.942.372C5.555 15.99 5.827 16 8 16s2.444-.01 3.298-.048c.851-.04 1.434-.174 1.943-.372a3.916 3.916 0 0 0 1.416-.923c.445-.445.718-.891.923-1.417.197-.509.332-1.09.372-1.942C15.99 10.445 16 10.173 16 8s-.01-2.445-.048-3.299c-.04-.851-.175-1.433-.372-1.941a3.926 3.926 0 0 0-.923-1.417A3.911 3.911 0 0 0 13.24.42c-.51-.198-1.092-.333-1.943-.372C10.443.01 10.172 0 7.998 0h.003zm-.717 1.442h.718c2.136 0 2.389.007 3.232.046.78.035 1.204.166 1.486.275.373.145.64.319.92.599.28.28.453.546.598.92.11.281.24.705.275 1.485.039.843.047 1.096.047 3.231s-.008 2.389-.047 3.232c-.035.78-.166 1.203-.275 1.485a2.47 2.47 0 0 1-.599.919c-.28.28-.546.453-.92.598-.28.11-.704.24-1.485.276-.843.038-1.096.047-3.232.047s-2.39-.009-3.233-.047c-.78-.036-1.203-.166-1.485-.276a2.478 2.478 0 0 1-.92-.598 2.48 2.48 0 0 1-.6-.92c-.109-.281-.24-.705-.275-1.485-.038-.843-.046-1.096-.046-3.233 0-2.136.008-2.388.046-3.231.036-.78.166-1.204.276-1.486.145-.373.319-.64.599-.92.28-.28.546-.453.92-.598.282-.11.705-.24 1.485-.276.738-.034 1.024-.044 2.515-.045v.002zm4.988 1.328a.96.96 0 1 0 0 1.92.96.96 0 0 0 0-1.92zm-4.27 1.122a4.109 4.109 0 1 0 0 8.217 4.109 4.109 0 0 0 0-8.217zm0 1.441a2.667 2.667 0 1 1 0 5.334 2.667 2.667 0 0 1 0-5.334z"
     id="path3878" />
  <path
     style="fill:#ffffff;stroke:#000000;stroke-width:0.0193004;paint-order:stroke fill markers"
     d="M 6.3594692,15.978817 C 4.812209,15.963369 4.3272807,15.938049 3.7732207,15.843778 2.6533929,15.653245 1.763542,15.165003 1.1068262,14.380785 0.63171766,13.813432 0.3086388,13.091245 0.16479267,12.27503 0.03650227,11.547082 0.01936444,11.044553 0.01932979,8.0096502 0.01929065,4.5821879 0.04342391,4.1130117 0.26245759,3.2829887 0.65671411,1.7889627 1.7008403,0.71764393 3.1772638,0.29227084 4.0173302,0.05023893 4.6042719,0.01670127 8,0.01670127 c 2.197518,0 2.95907,0.01297883 3.580217,0.06101631 1.465299,0.1133213 2.533555,0.6103862 3.312876,1.54149782 0.571169,0.6824172 0.892761,1.5071475 1.009255,2.5882635 0.05814,0.5395733 0.07241,1.1085261 0.08227,3.2810615 0.01219,2.6849776 -0.01299,3.7886106 -0.102174,4.4776836 -0.117381,0.906957 -0.42265,1.694335 -0.887904,2.29016 -0.78818,1.009378 -1.882625,1.544768 -3.404674,1.665529 -0.718231,0.05698 -2.8735814,0.08043 -5.2303978,0.0569 z m 3.5512666,-1.426423 c 1.4617322,-0.02487 1.8925352,-0.05669 2.3709012,-0.175158 0.285077,-0.0706 0.533818,-0.162928 0.753879,-0.279835 0.597969,-0.317671 1.060059,-0.8821 1.273301,-1.555301 0.231952,-0.732268 0.261082,-1.311833 0.247692,-4.9281072 -0.0088,-2.379874 -0.01803,-2.8014976 -0.07258,-3.3196623 C 14.415617,3.6453545 14.204252,3.049667 13.897897,2.6427113 13.75188,2.4487442 13.476061,2.1803268 13.284593,2.0458644 12.905254,1.7794644 12.329045,1.5864066 11.705669,1.5168484 11.131227,1.4527504 10.485673,1.4393465 7.9420989,1.4387046 4.9992677,1.4379618 4.5351456,1.4537366 3.8992023,1.5761162 3.273516,1.696522 2.803889,1.9255963 2.4092275,2.3028952 2.0751228,2.6223014 1.8656011,2.9516196 1.7109391,3.4004385 1.4627431,4.1206869 1.4293112,4.7452171 1.443022,8.4053076 c 0.00908,2.4243954 0.019954,2.8661144 0.082657,3.3582634 0.1061422,0.833096 0.3588875,1.40572 0.8271336,1.873966 0.4754089,0.475409 1.0693771,0.736615 1.9029171,0.836835 0.6831108,0.08213 3.2950247,0.11817 5.655006,0.07802 z"
     id="path4003" />
  <path
     style="fill:#ffffff;stroke:#000000;stroke-width:0.0193004;paint-order:stroke fill markers"
     d="M 7.5367913,12.080785 C 6.5884814,11.975675 5.7556758,11.585957 5.0885067,10.93509 4.2743785,10.140855 3.8445945,9.1267528 3.8445945,8 c 0,-0.8155779 0.2323381,-1.5907038 0.6757969,-2.2545919 0.6528225,-0.9773202 1.6695811,-1.6260492 2.8176176,-1.7977429 1.5410215,-0.2304661 3.112607,0.4588281 3.980733,1.7459416 0.630317,0.9345283 0.851072,2.0148657 0.634954,3.1073582 -0.300547,1.519294 -1.453435,2.750609 -2.9554359,3.156488 -0.4276573,0.115564 -1.0543869,0.168453 -1.4614688,0.123332 z M 8.5983112,10.60886 C 9.1242223,10.484833 9.566736,10.231062 9.9407917,9.8389796 10.422399,9.3341622 10.670106,8.7095651 10.670106,8 10.670106,7.2904349 10.422399,6.6658378 9.9407917,6.1610204 9.5577598,5.7595292 9.1041073,5.5037871 8.5581429,5.3815658 8.2897044,5.3214723 7.7350983,5.3169502 7.4788902,5.3727658 6.5976069,5.5647556 5.877147,6.1495323 5.5411356,6.9455859 5.1108983,7.9648722 5.3359052,9.1167649 6.116569,9.8914399 6.5557504,10.327252 7.0359191,10.56339 7.681544,10.661067 c 0.031846,0.0048 0.2055489,0.0058 0.3860073,0.0022 0.2652831,-0.0053 0.3669085,-0.01574 0.5307599,-0.05438 z"
     id="path4005" />
  <path
     style="fill:#ffffff;stroke:#000000;stroke-width:0.0193004;paint-order:stroke fill markers"
     d="M 12.168449,4.6691378 C 11.940768,4.6440838 11.705254,4.5239574 11.562711,4.3601746 11.458126,4.2400048 11.358993,4.0233593 11.333639,3.8595577 c -0.09906,-0.6399756 0.52889,-1.211508 1.154465,-1.0507439 0.435973,0.1120388 0.725399,0.4791494 0.72465,0.9191524 -4.53e-4,0.2662167 -0.07541,0.4541473 -0.258413,0.6478428 -0.213752,0.2262482 -0.482826,0.326678 -0.785892,0.2933288 z"
     id="path4007" />
</svg>
