<?xml version="1.0" encoding="UTF-8" standalone="no"?>
<svg
   width="16"
   height="16"
   fill="currentColor"
   class="bi bi-twitter"
   viewBox="0 0 16 16"
   version="1.1"
   id="svg142"
   sodipodi:docname="twitter.svg"
   inkscape:version="1.2.1 (9c6d41e410, 2022-07-14)"
   xmlns:inkscape="http://www.inkscape.org/namespaces/inkscape"
   xmlns:sodipodi="http://sodipodi.sourceforge.net/DTD/sodipodi-0.dtd"
   xmlns="http://www.w3.org/2000/svg"
   xmlns:svg="http://www.w3.org/2000/svg">
  <defs
     id="defs146" />
  <sodipodi:namedview
     id="namedview144"
     pagecolor="#ffffff"
     bordercolor="#000000"
     borderopacity="0.25"
     inkscape:showpageshadow="2"
     inkscape:pageopacity="0.0"
     inkscape:pagecheckerboard="0"
     inkscape:deskcolor="#d1d1d1"
     showgrid="false"
     inkscape:zoom="45.254834"
     inkscape:cx="4.960796"
     inkscape:cy="10.429825"
     inkscape:window-width="1920"
     inkscape:window-height="1009"
     inkscape:window-x="-8"
     inkscape:window-y="-8"
     inkscape:window-maximized="1"
     inkscape:current-layer="svg142" />
  <path
     d="M5.026 15c6.038 0 9.341-5.003 9.341-9.334 0-.14 0-.282-.006-.422A6.685 6.685 0 0 0 16 3.542a6.658 6.658 0 0 1-1.889.518 3.301 3.301 0 0 0 1.447-1.817 6.533 6.533 0 0 1-2.087.793A3.286 3.286 0 0 0 7.875 6.03a9.325 9.325 0 0 1-6.767-3.429 3.289 3.289 0 0 0 1.018 4.382A3.323 3.323 0 0 1 .64 6.575v.045a3.288 3.288 0 0 0 2.632 3.218 3.203 3.203 0 0 1-.865.115 3.23 3.23 0 0 1-.614-.057 3.283 3.283 0 0 0 3.067 2.277A6.588 6.588 0 0 1 .78 13.58a6.32 6.32 0 0 1-.78-.045A9.344 9.344 0 0 0 5.026 15z"
     id="path140" />
  <path
     style="fill:#000000;stroke-width:0.0198511;paint-order:stroke fill markers"
     d="M 4.5062035,14.974475 C 4.462531,14.97093 4.31067,14.958639 4.1687345,14.947161 3.3065173,14.877437 2.2555131,14.615926 1.4216073,14.263621 1.0800033,14.119301 0.55639784,13.855579 0.27791563,13.687582 l -0.21836228,-0.13173 0.15880893,0.01359 c 0.24313116,0.02081 0.96739372,0.01454 1.20099252,-0.01039 1.2220157,-0.13045 2.307447,-0.542766 3.2681051,-1.241434 L 4.8785247,12.17866 4.7419919,12.163506 C 4.2431097,12.108133 3.9348885,12.030925 3.5841824,11.873479 2.9403603,11.58444 2.4041274,11.093024 2.0571672,10.474087 1.9613974,10.303244 1.8022242,9.9330942 1.8178208,9.9174976 c 0.00468,-0.00468 0.053171,9.131e-4 0.1077531,0.012435 0.054582,0.011522 0.268967,0.02137 0.4764112,0.021884 0.3696439,9.171e-4 0.5868772,-0.022864 0.8138958,-0.089096 l 0.079404,-0.023166 -0.099256,-0.026984 C 2.3207659,9.5746168 1.6917095,9.1424828 1.2217559,8.4563323 0.884413,7.9637985 0.70239597,7.4247547 0.65377006,6.7742414 L 0.64004782,6.5906666 0.82622739,6.6780546 C 1.0614277,6.7884516 1.332952,6.8779285 1.5878045,6.9290211 c 0.2294237,0.045995 0.566789,0.073976 0.536265,0.044478 C 2.1131514,6.9629477 2.0461538,6.91091 1.9751861,6.8578591 1.8069848,6.7321231 1.5631476,6.4970581 1.419932,6.3225806 0.94006789,5.7379696 0.68390724,5.0161165 0.68378444,4.248139 0.68369947,3.7166974 0.78536738,3.273612 1.0149864,2.8047068 l 0.091743,-0.1873486 0.061996,0.075936 C 1.3017291,2.8562041 1.5428816,3.1171073 1.7687064,3.3424144 2.989755,4.5606632 4.5537614,5.4229429 6.2535545,5.8150346 6.699597,5.9179234 7.5206726,6.0347395 7.797813,6.0347395 H 7.884596 L 7.8588312,5.9007444 C 7.7577346,5.3749785 7.7955385,4.7845624 7.9631829,4.2709977 8.3399962,3.1166619 9.3234055,2.2706788 10.540943,2.0534662 c 0.238758,-0.042595 0.778908,-0.049132 1.002481,-0.012132 0.692703,0.1146385 1.277092,0.3992229 1.784516,0.8690197 l 0.145662,0.1348609 0.16591,-0.034151 c 0.466124,-0.095947 1.025619,-0.2969427 1.526741,-0.5484746 0.185608,-0.093163 0.344401,-0.1725328 0.352874,-0.1763763 0.02387,-0.010826 -0.07009,0.2262093 -0.163924,0.4135386 -0.233396,0.4659673 -0.563646,0.8571189 -0.982995,1.164269 -0.312632,0.2289861 -0.293217,0.2078796 -0.17866,0.1942324 0.459837,-0.054781 1.077741,-0.2131622 1.534706,-0.3933762 0.122165,-0.048178 0.222118,-0.083205 0.222118,-0.077838 0,0.018423 -0.234792,0.3336165 -0.360547,0.484012 -0.333655,0.3990317 -0.663958,0.7200608 -1.055648,1.0260076 l -0.171199,0.133723 -0.0089,0.4962716 c -0.0095,0.5290543 -0.04247,0.9094735 -0.1205,1.3895718 -0.242691,1.4932655 -0.861228,2.9617873 -1.763143,4.1860363 -0.535494,0.726874 -1.26443,1.456337 -1.959273,1.960689 -1.3910177,1.009671 -3.000121,1.581361 -4.794476,1.703405 -0.2717447,0.01848 -1.0191376,0.02325 -1.2104865,0.0077 z"
     id="path459" />
  <path
     style="opacity:1;fill:#ffffff;stroke:#000000;stroke-width:0.0220971;stroke-opacity:1;paint-order:stroke fill markers"
     d="M 4.2536892,14.957225 C 3.0612193,14.852006 1.9005439,14.525132 0.85335072,13.999608 0.59667657,13.870798 0.23882976,13.672133 0.14459498,13.606129 0.11292682,13.583948 0.22285788,13.578604 0.71560079,13.578367 1.3725893,13.578054 1.5662369,13.560913 2.0891817,13.456791 3.0252523,13.270413 3.9344,12.871347 4.6937657,12.313521 4.8067694,12.23051 4.8674539,12.173032 4.8484454,12.167015 4.8312412,12.161569 4.7368652,12.151751 4.638721,12.145196 4.1182157,12.110434 3.5305309,11.89875 3.0553759,11.574874 2.695906,11.329851 2.305424,10.906435 2.0872153,10.525055 1.9944671,10.362952 1.8230097,9.9848434 1.8230097,9.9424119 c 0,-0.015041 0.057594,-0.016779 0.1712524,-0.00517 0.3047173,0.031128 0.7904046,0.014745 1.0416341,-0.035138 0.233364,-0.046335 0.2761175,-0.061115 0.2210626,-0.076419 C 2.4884811,9.612062 2.0879843,9.3920987 1.6225754,8.9280411 1.0421461,8.3492972 0.71209811,7.6275286 0.65927143,6.821431 0.64705514,6.6350196 0.64971556,6.6017062 0.67591919,6.6129711 c 0.0171532,0.00737 0.12396303,0.054075 0.2373552,0.103779 C 1.2707546,6.8734485 1.7868142,6.9944227 2.0304191,6.9786304 l 0.1079725,-0.007 L 2.008322,6.8833086 C 1.8280353,6.7608868 1.4400933,6.3667583 1.285369,6.1488267 1.0224574,5.7785115 0.80971867,5.2715754 0.72457411,4.8125058 0.66704419,4.5023245 0.67363734,3.9282688 0.73822284,3.6241328 0.80264862,3.3207489 0.87517864,3.1050961 1.0020615,2.8396638 l 0.103551,-0.2166233 0.1909186,0.218703 C 1.5352947,3.1152544 2.1047624,3.675326 2.3533398,3.8811149 3.8390327,5.111071 5.6495958,5.855936 7.5399218,6.014873 7.7127179,6.0294014 7.8595595,6.0358255 7.8662366,6.0291484 7.8729136,6.0224713 7.8620991,5.914236 7.8422042,5.7886258 7.7934191,5.4806079 7.8097909,4.8695129 7.8742275,4.593331 8.103664,3.6099421 8.7375585,2.796931 9.6122328,2.3642257 9.9210215,2.2114665 10.119494,2.1425486 10.440874,2.0764874 c 1.026821,-0.2110683 2.1297,0.110668 2.887495,0.8423516 l 0.138085,0.1333271 0.293647,-0.070767 c 0.524681,-0.1264444 1.004791,-0.3074342 1.507318,-0.5682221 0.140682,-0.073007 0.255785,-0.1245818 0.255785,-0.114611 0,0.042517 -0.16326,0.4002439 -0.256946,0.5630066 -0.265439,0.4611522 -0.559771,0.7693487 -1.113652,1.1661091 -0.05436,0.038936 -0.05398,0.039081 0.06687,0.025644 0.405808,-0.045123 1.06651,-0.2141529 1.491554,-0.3815902 0.121534,-0.047876 0.224988,-0.083317 0.229897,-0.078759 0.01608,0.014929 -0.365093,0.5008689 -0.578932,0.7380525 -0.22606,0.2507397 -0.481624,0.4873466 -0.80116,0.7417321 l -0.202308,0.1610588 -0.01321,0.592692 c -0.01471,0.659861 -0.05573,1.0352605 -0.180655,1.653352 -0.491832,2.4334751 -1.935166,4.6292821 -3.923516,5.9690151 -1.2854457,0.866122 -2.7014794,1.356826 -4.3301693,1.50055 -0.3926042,0.03464 -1.3043806,0.03893 -1.6572815,0.0078 z"
     id="path2781" />
</svg>
